HIERARCHY
ROOT hip
{
	OFFSET 0.000000 103.560692 0.219151
	CHANNELS 6 Xposition Yposition Zposition Zrotation Xrotation Yrotation
	JOINT pelvis
	{
		OFFSET 0.000000 1.955040 1.591925
		CHANNELS 3 Zrotation Xrotation Yrotation
		JOINT lThigh
		{
			OFFSET 8.341582 -7.629402 -0.646910
			CHANNELS 3 Zrotation Xrotation Yrotation
			JOINT lShin
			{
				OFFSET 2.185763 -45.093132 -0.705710
				CHANNELS 3 Zrotation Xrotation Yrotation
				JOINT lFoot
				{
					OFFSET 0.730976 -46.379768 -2.264282
					CHANNELS 3 Zrotation Xrotation Yrotation
					JOINT lToe
					{
						OFFSET 2.797621 -4.200020 10.742415
						CHANNELS 3 Zrotation Xrotation Yrotation
						JOINT lBigToe
						{
							OFFSET -2.433708 -0.269072 1.841711
							CHANNELS 3 Zrotation Xrotation Yrotation
							End Site
							{
								OFFSET -10.527346 -33.657166 -1.340707
							}
						}
					}
				}
			}
		}
		JOINT rThigh
		{
			OFFSET -8.341582 -7.629402 -0.646910
			CHANNELS 3 Zrotation Xrotation Yrotation
			JOINT rShin
			{
				OFFSET -2.185763 -45.093132 -0.705710
				CHANNELS 3 Zrotation Xrotation Yrotation
				JOINT rFoot
				{
					OFFSET -0.730976 -46.379768 -2.264282
					CHANNELS 3 Zrotation Xrotation Yrotation
					JOINT rToe
					{
						OFFSET -2.797621 -4.200019 10.742415
						CHANNELS 3 Zrotation Xrotation Yrotation
						JOINT rBigToe
						{
							OFFSET 2.433708 -0.269072 1.841711
							CHANNELS 3 Zrotation Xrotation Yrotation
							End Site
							{
								OFFSET 0.000000 24.298409 -0.425647
							}
						}
					}
				}
			}
		}
	}
	JOINT abdomen
	{
		OFFSET 0.000000 1.841293 -3.551421
		CHANNELS 3 Zrotation Xrotation Yrotation
		JOINT abdomen2
		{
			OFFSET 0.000000 5.439911 3.419600
			CHANNELS 3 Zrotation Xrotation Yrotation
			JOINT chest
			{
				OFFSET 0.000000 14.715073 -2.918270
				CHANNELS 3 Zrotation Xrotation Yrotation
				JOINT neck
				{
					OFFSET 0.000000 26.294655 -1.248052
					CHANNELS 3 Zrotation Xrotation Yrotation
					JOINT head
					{
						OFFSET 0.000000 8.807068 1.063695
						CHANNELS 3 Zrotation Xrotation Yrotation
						JOINT rEye
						{
							OFFSET -3.030866 6.632080 7.702687
							CHANNELS 3 Zrotation Xrotation Yrotation
							End Site
							{
								OFFSET 2.969555 -11.022598 8.626689
							}
						}
						JOINT lEye
						{
							OFFSET 3.030866 6.632080 7.702687
							CHANNELS 3 Zrotation Xrotation Yrotation
							End Site
							{
								OFFSET 0.000000 -15.881760 10.104412
							}
						}
						JOINT upperJaw
						{
							OFFSET 0.000000 1.922699 2.891887
							CHANNELS 3 Zrotation Xrotation Yrotation
							End Site
							{
								OFFSET 0.000000 -19.386169 10.230839
							}
						}
						JOINT lowerJaw
						{
							OFFSET 0.000000 1.857620 2.686640
							CHANNELS 3 Zrotation Xrotation Yrotation
							JOINT tongueBase
							{
								OFFSET 0.000000 -3.019135 2.746916
								CHANNELS 3 Zrotation Xrotation Yrotation
								JOINT tongue01
								{
									OFFSET 0.000000 0.664124 0.223355
									CHANNELS 3 Zrotation Xrotation Yrotation
									JOINT tongue02
									{
										OFFSET 0.000000 0.339737 0.715627
										CHANNELS 3 Zrotation Xrotation Yrotation
										JOINT tongue03
										{
											OFFSET 0.000000 0.123444 0.730634
											CHANNELS 3 Zrotation Xrotation Yrotation
											JOINT tongue04
											{
												OFFSET 0.000000 0.017212 0.737415
												CHANNELS 3 Zrotation Xrotation Yrotation
												JOINT tongue05
												{
													OFFSET 0.000000 -0.021011 0.632440
													CHANNELS 3 Zrotation Xrotation Yrotation
													JOINT tongueTip
													{
														OFFSET 0.000000 -0.014404 0.601796
														CHANNELS 3 Zrotation Xrotation Yrotation
														End Site
														{
															OFFSET -14.139406 -2.625778 0.472826
														}
													}
												}
											}
										}
									}
								}
							}
						}
					}
				}
				JOINT rCollar
				{
					OFFSET -2.109295 21.452370 3.768136
					CHANNELS 3 Zrotation Xrotation Yrotation
					JOINT rShldr
					{
						OFFSET -11.491621 -2.568573 -4.940255
						CHANNELS 3 Zrotation Xrotation Yrotation
						JOINT rForeArm
						{
							OFFSET -28.789030 -0.213806 2.098380
							CHANNELS 3 Zrotation Xrotation Yrotation
							JOINT rHand
							{
								OFFSET -22.260895 -0.869583 10.391586
								CHANNELS 3 Zrotation Xrotation Yrotation
								JOINT rThumb1
								{
									OFFSET -0.628075 0.137405 2.362409
									CHANNELS 3 Zrotation Xrotation Yrotation
									JOINT rThumb2
									{
										OFFSET 0.085205 -0.600235 3.826079
										CHANNELS 3 Zrotation Xrotation Yrotation
										JOINT rThumb3
										{
											OFFSET -1.255478 -0.879211 2.439162
											CHANNELS 3 Zrotation Xrotation Yrotation
											End Site
											{
												OFFSET -2.963715 0.538574 4.059553
											}
										}
									}
								}
								JOINT rCarpal1
								{
									OFFSET -0.855530 1.026047 1.621985
									CHANNELS 3 Zrotation Xrotation Yrotation
									JOINT rIndex1
									{
										OFFSET -3.951324 0.390884 3.873290
										CHANNELS 3 Zrotation Xrotation Yrotation
										JOINT rIndex2
										{
											OFFSET -3.071884 -1.259598 2.506104
											CHANNELS 3 Zrotation Xrotation Yrotation
											JOINT rIndex3
											{
												OFFSET -1.394112 -1.446640 1.203302
												CHANNELS 3 Zrotation Xrotation Yrotation
												End Site
												{
													OFFSET -3.392448 -1.258026 0.533405
												}
											}
										}
									}
									JOINT rMid1
									{
										OFFSET -5.422974 0.107910 2.002650
										CHANNELS 3 Zrotation Xrotation Yrotation
										JOINT rMid2
										{
											OFFSET -3.599533 -1.323776 2.090647
											CHANNELS 3 Zrotation Xrotation Yrotation
											JOINT rMid3
											{
												OFFSET -1.360191 -1.598495 1.068055
												CHANNELS 3 Zrotation Xrotation Yrotation
												End Site
												{
													OFFSET -4.087769 -0.460876 0.069540
												}
											}
										}
									}
								}
								JOINT rCarpal2
								{
									OFFSET -1.942749 0.556229 -0.337217
									CHANNELS 3 Zrotation Xrotation Yrotation
									JOINT rRing1
									{
										OFFSET -4.762787 -0.121170 2.349089
										CHANNELS 3 Zrotation Xrotation Yrotation
										JOINT rRing2
										{
											OFFSET -3.380348 -1.337097 1.356700
											CHANNELS 3 Zrotation Xrotation Yrotation
											JOINT rRing3
											{
												OFFSET -1.430290 -1.499649 0.914224
												CHANNELS 3 Zrotation Xrotation Yrotation
												End Site
												{
													OFFSET -1.783272 -2.215851 -0.391895
												}
											}
										}
									}
									JOINT rPinky1
									{
										OFFSET -5.232559 -1.313721 0.336493
										CHANNELS 3 Zrotation Xrotation Yrotation
										JOINT rPinky2
										{
											OFFSET -2.217606 -1.389603 0.800693
											CHANNELS 3 Zrotation Xrotation Yrotation
											JOINT rPinky3
											{
												OFFSET -0.886887 -1.462280 0.774199
												CHANNELS 3 Zrotation Xrotation Yrotation
												End Site
												{
													OFFSET 14.139406 -2.625778 0.472826
												}
											}
										}
									}
								}
							}
						}
					}
				}
				JOINT lCollar
				{
					OFFSET 2.109295 21.452370 3.768136
					CHANNELS 3 Zrotation Xrotation Yrotation
					JOINT lShldr
					{
						OFFSET 11.491621 -2.568573 -4.940255
						CHANNELS 3 Zrotation Xrotation Yrotation
						JOINT lForeArm
						{
							OFFSET 28.789030 -0.213806 2.098380
							CHANNELS 3 Zrotation Xrotation Yrotation
							JOINT lHand
							{
								OFFSET 22.260895 -0.869583 10.391586
								CHANNELS 3 Zrotation Xrotation Yrotation
								JOINT lThumb1
								{
									OFFSET 0.628075 0.137405 2.362409
									CHANNELS 3 Zrotation Xrotation Yrotation
									JOINT lThumb2
									{
										OFFSET -0.085205 -0.600235 3.826079
										CHANNELS 3 Zrotation Xrotation Yrotation
										JOINT lThumb3
										{
											OFFSET 1.255478 -0.879211 2.439162
											CHANNELS 3 Zrotation Xrotation Yrotation
											End Site
											{
												OFFSET 2.963715 0.538574 4.059553
											}
										}
									}
								}
								JOINT lCarpal1
								{
									OFFSET 0.855530 1.026047 1.621985
									CHANNELS 3 Zrotation Xrotation Yrotation
									JOINT lIndex1
									{
										OFFSET 3.951324 0.390884 3.873290
										CHANNELS 3 Zrotation Xrotation Yrotation
										JOINT lIndex2
										{
											OFFSET 3.071884 -1.259598 2.506104
											CHANNELS 3 Zrotation Xrotation Yrotation
											JOINT lIndex3
											{
												OFFSET 1.394112 -1.446640 1.203302
												CHANNELS 3 Zrotation Xrotation Yrotation
												End Site
												{
													OFFSET 3.392448 -1.258026 0.533405
												}
											}
										}
									}
									JOINT lMid1
									{
										OFFSET 5.422974 0.107910 2.002650
										CHANNELS 3 Zrotation Xrotation Yrotation
										JOINT lMid2
										{
											OFFSET 3.599533 -1.323776 2.090647
											CHANNELS 3 Zrotation Xrotation Yrotation
											JOINT lMid3
											{
												OFFSET 1.360191 -1.598495 1.068055
												CHANNELS 3 Zrotation Xrotation Yrotation
												End Site
												{
													OFFSET 4.087769 -0.460876 0.069540
												}
											}
										}
									}
								}
								JOINT lCarpal2
								{
									OFFSET 1.942749 0.556229 -0.337217
									CHANNELS 3 Zrotation Xrotation Yrotation
									JOINT lRing1
									{
										OFFSET 4.762787 -0.121170 2.349089
										CHANNELS 3 Zrotation Xrotation Yrotation
										JOINT lRing2
										{
											OFFSET 3.380348 -1.337097 1.356700
											CHANNELS 3 Zrotation Xrotation Yrotation
											JOINT lRing3
											{
												OFFSET 1.430290 -1.499649 0.914224
												CHANNELS 3 Zrotation Xrotation Yrotation
												End Site
												{
													OFFSET 1.783272 -2.215851 -0.391895
												}
											}
										}
									}
									JOINT lPinky1
									{
										OFFSET 5.232559 -1.313721 0.336493
										CHANNELS 3 Zrotation Xrotation Yrotation
										JOINT lPinky2
										{
											OFFSET 2.217606 -1.389603 0.800693
											CHANNELS 3 Zrotation Xrotation Yrotation
											JOINT lPinky3
											{
												OFFSET 0.886887 -1.462280 0.774199
												CHANNELS 3 Zrotation Xrotation Yrotation
												End Site
												{
													OFFSET -10.295957 -17.050110 17.461308
												}
											}
										}
									}
								}
							}
						}
					}
				}
				JOINT rPectoral
				{
					OFFSET -6.358840 6.360771 6.369920
					CHANNELS 3 Zrotation Xrotation Yrotation
					End Site
					{
						OFFSET 10.295957 -17.050110 17.461308
					}
				}
				JOINT lPectoral
				{
					OFFSET 6.358840 6.360771 6.369920
					CHANNELS 3 Zrotation Xrotation Yrotation
					End Site
					{
						OFFSET 10.295957 -17.050110 17.461308
					}
				}
			}
		}
	}
}
MOTION
Frames:	4
Frame Time:	0.0333333
14.433296 0.085467 98.804413 6.348881 7.211732 -124.284798 0.000000 0.000000 0.000000 44.703819 -8.728460 28.537397 -15.797747 13.094474 35.172009 -9.540297 17.225334 -6.692469 11.732115 -13.793643 -0.299689 0.000000 0.000000 0.000000 6.325483 4.396625 5.025943 6.472328 -3.274558 11.256231 -11.286579 -14.274792 -10.914174 -2.583939 -12.665960 -1.863382 0.000000 0.000000 0.000000 -4.245948 -1.826622 -5.857647 0.000000 0.000000 0.000000 9.293398 1.931364 -5.916580 13.334620 -9.927054 -0.826146 -10.739923 8.004223 6.494923 0.000000 0.000000 0.000000 0.000000 0.000000 0.000000 0.000000 0.000000 0.000000 0.000000 0.000000 0.000000 0.000000 0.000000 0.000000 0.000000 0.000000 0.000000 0.000000 0.000000 0.000000 0.000000 0.000000 0.000000 0.000000 0.000000 0.000000 0.000000 0.000000 0.000000 0.000000 0.000000 0.000000 7.726271 -0.280146 -5.335109 10.854092 62.103119 10.895312 -19.557386 11.959395 49.213341 -8.880955 -6.516199 23.873356 -20.278101 15.997745 -11.245070 -5.405472 -14.231636 9.903103 -16.386185 20.674324 16.306753 0.000000 0.000000 0.000000 -10.344722 -8.555511 -17.047894 -7.797001 -4.833429 -1.844039 -11.439776 -8.836915 -2.100391 -8.640635 -3.320988 -7.187178 -0.594737 3.049747 -3.815813 0.465115 4.586578 -2.176589 0.000000 0.000000 0.000000 -4.053409 -6.935108 0.570711 16.383318 9.700345 -7.257548 1.274629 8.359100 -3.952725 -18.864351 -24.497574 -13.525259 48.465355 21.906361 -10.696066 34.311016 26.749933 -1.842245 -9.703774 -0.348428 5.545691 -50.432240 17.195780 -1.469824 2.025513 -24.057844 24.736027 4.096003 -1.522272 -1.496773 15.319375 21.766415 8.847219 9.897357 -11.660407 7.278462 18.869974 24.455250 -9.597977 0.000000 0.000000 0.000000 11.420111 -8.962692 17.696444 7.742449 -6.475732 0.297233 7.669960 -5.979775 1.302682 9.657770 -3.689982 7.578338 1.672497 2.702245 3.958704 -3.523009 6.268773 1.440409 0.000000 0.000000 0.000000 5.501590 -6.679728 1.170101 -14.897585 10.505441 6.875091 -11.617700 10.916432 0.445627 21.079500 -24.272398 15.081807 -47.080284 22.724037 10.346928 -40.794605 22.741798 -2.183594 0.176416 -0.008936 -0.518042 -0.186194 -0.009478 0.546761 
15.407853 -0.725593 97.826157 7.839085 6.698177 -127.813347 0.000000 0.000000 0.000000 47.697826 -9.655383 31.083437 -19.200480 16.258492 32.494518 -12.999509 12.140406 -6.108140 12.456247 -9.502276 -0.524528 0.000000 0.000000 0.000000 7.378092 3.134791 6.531141 7.336363 -3.284619 12.936937 -13.076836 -16.694412 -13.455329 -2.822782 -8.630015 -2.252527 0.000000 0.000000 0.000000 -5.006450 -4.061837 -7.508195 0.000000 0.000000 0.000000 12.281219 4.250843 -7.757320 14.346650 -11.636465 1.326798 -13.267562 9.372223 9.940449 0.000000 0.000000 0.000000 0.000000 0.000000 0.000000 0.000000 0.000000 0.000000 0.000000 0.000000 0.000000 0.000000 0.000000 0.000000 0.000000 0.000000 0.000000 0.000000 0.000000 0.000000 0.000000 0.000000 0.000000 0.000000 0.000000 0.000000 0.000000 0.000000 0.000000 0.000000 0.000000 0.000000 7.445662 -0.198430 -4.822125 6.016828 60.138832 15.138911 -18.813307 10.778200 50.066956 -7.156584 -5.120423 23.963455 -20.576864 15.527045 -11.915956 -5.405472 -14.231636 9.903103 -16.143259 20.125877 16.419464 0.000000 0.000000 0.000000 -10.659721 -8.868414 -17.008133 -7.797001 -4.833429 -1.844039 -11.439776 -8.836915 -2.100391 -8.903504 -3.441490 -7.240819 -0.657419 3.008145 -3.818720 0.465115 4.586578 -2.176589 0.000000 0.000000 0.000000 -4.428397 -6.963163 0.392538 16.383318 9.700345 -7.257548 1.243992 8.343777 -3.953286 -19.276524 -24.301298 -13.855233 48.560421 21.932703 -10.718942 34.251678 26.712797 -1.837060 -11.219015 -0.535907 6.411619 -53.878395 17.600986 1.720175 2.137750 -25.582207 25.246752 4.592559 -1.750516 -0.442482 15.319375 21.766415 8.847219 9.897357 -11.660407 7.278462 18.869974 24.455250 -9.597977 0.000000 0.000000 0.000000 11.420111 -8.962692 17.696444 7.742449 -6.475732 0.297233 7.669960 -5.979775 1.302682 9.657770 -3.689982 7.578338 1.672497 2.702245 3.958704 -3.523009 6.268773 1.440409 0.000000 0.000000 0.000000 5.501590 -6.679728 1.170101 -14.897585 10.505441 6.875091 -11.617700 10.916432 0.445627 21.079500 -24.272398 15.081807 -47.080284 22.724037 10.346928 -40.794605 22.741798 -2.183594 0.159431 -0.008006 -0.468157 -0.217083 -0.011223 0.637490 
16.007421 -1.025999 97.399910 8.805912 6.897978 -130.020157 0.000000 0.000000 0.000000 49.125908 -9.838301 30.340885 -21.110706 16.622992 34.695751 -11.675277 10.033869 -6.516499 11.266511 -9.616141 -0.159853 0.000000 0.000000 0.000000 8.608737 2.747654 6.166293 6.926061 -3.281549 12.407341 -11.525445 -18.164091 -11.246997 -3.528509 -6.345628 -2.334756 0.000000 0.000000 0.000000 -4.417566 -4.896130 -7.208371 0.000000 0.000000 0.000000 13.068963 4.661111 -7.748658 15.693667 -10.127829 1.120299 -14.505196 7.484806 10.590984 0.000000 0.000000 0.000000 0.000000 0.000000 0.000000 0.000000 0.000000 0.000000 0.000000 0.000000 0.000000 0.000000 0.000000 0.000000 0.000000 0.000000 0.000000 0.000000 0.000000 0.000000 0.000000 0.000000 0.000000 0.000000 0.000000 0.000000 0.000000 0.000000 0.000000 0.000000 0.000000 0.000000 7.539780 -0.248037 -5.143391 6.023678 59.890930 15.207869 -15.651242 10.224737 50.391315 -9.225068 -6.895431 24.353725 -21.455570 14.264738 -13.739169 -5.405771 -14.231562 9.902724 -15.454908 18.626656 16.735970 0.000000 0.000000 0.000000 -11.524870 -9.723869 -16.903406 -7.797001 -4.833429 -1.844039 -11.439776 -8.836915 -2.100391 -9.624743 -3.771506 -7.391340 -0.829229 2.894240 -3.826902 0.431558 4.562220 -2.180483 0.000000 0.000000 0.000000 -5.454492 -7.037470 -0.100278 16.399075 9.699801 -7.240465 1.159780 8.301807 -3.954901 -20.394012 -23.755922 -14.755447 48.820992 22.007265 -10.781228 34.088642 26.611525 -1.823741 -11.897854 -0.584022 6.569869 -56.277821 17.140711 1.975203 2.674464 -26.083355 26.141106 6.072278 -2.465873 0.329074 15.319375 21.766415 8.847219 9.897357 -11.660407 7.278462 18.869974 24.455250 -9.597977 0.000000 0.000000 0.000000 11.420111 -8.962692 17.696444 7.742449 -6.475732 0.297233 7.669960 -5.979775 1.302682 9.657770 -3.689982 7.578338 1.672497 2.702245 3.958704 -3.523009 6.268773 1.440409 0.000000 0.000000 0.000000 5.501590 -6.679728 1.170101 -14.897585 10.505441 6.875091 -11.617700 10.916432 0.445627 21.079500 -24.272398 15.081807 -47.080284 22.724037 10.346928 -40.793362 22.744427 -2.182865 0.169962 -0.008581 -0.499087 -0.223614 -0.011598 0.656676 
16.549574 -1.021009 97.119576 9.733793 6.640048 -131.642441 0.000000 0.000000 0.000000 49.656780 -10.619275 29.151600 -22.024649 16.862972 36.944378 -8.648818 9.792871 -7.104335 11.545824 -9.563687 -0.215717 0.000000 0.000000 0.000000 8.590300 1.876251 6.734473 8.243951 -3.289236 16.184650 -12.609756 -17.369164 -13.545871 -3.579092 -6.694888 -2.243201 0.000000 0.000000 0.000000 -3.695236 -6.197085 -6.806648 0.000000 0.000000 0.000000 12.843683 4.988430 -7.537745 17.050142 -8.391792 0.436196 -15.546204 6.294009 10.734449 0.000000 0.000000 0.000000 0.000000 0.000000 0.000000 0.000000 0.000000 0.000000 0.000000 0.000000 0.000000 0.000000 0.000000 0.000000 0.000000 0.000000 0.000000 0.000000 0.000000 0.000000 0.000000 0.000000 0.000000 0.000000 0.000000 0.000000 0.000000 0.000000 0.000000 0.000000 0.000000 0.000000 7.693909 -0.322233 -5.614297 6.284517 59.962505 15.385766 -11.430229 9.713507 50.852585 -9.589291 -7.503193 25.607914 -22.435247 12.055536 -15.163618 -5.318472 -14.262962 10.208055 -14.202265 16.345297 17.438429 0.000000 0.000000 0.000000 -12.892970 -10.875861 -16.875751 -7.748836 -4.789503 -1.837298 -11.439776 -8.836915 -2.100391 -10.735161 -4.277771 -7.627420 -1.114927 2.704793 -3.841386 0.353940 4.504914 -2.188880 0.000000 0.000000 0.000000 -7.134505 -7.258826 -0.836414 16.041447 9.550229 -7.187475 0.951188 8.200478 -3.960971 -22.216885 -23.082413 -15.975878 47.980286 21.801411 -10.608893 33.358528 26.198616 -1.783607 -13.096386 -0.645201 6.707818 -58.035389 18.237789 1.966771 3.538386 -28.540644 26.553007 7.335090 -3.029819 1.278687 15.319375 21.766415 8.847219 9.897357 -11.660407 7.278462 18.869974 24.455250 -9.597977 0.000000 0.000000 0.000000 11.420111 -8.962692 17.696444 7.612426 -6.351157 0.277993 7.669960 -5.979775 1.302682 9.657770 -3.689982 7.578338 1.672497 2.702245 3.958704 -3.523009 6.268773 1.440409 0.000000 0.000000 0.000000 5.717833 -6.755634 1.206303 -14.897585 10.505441 6.875091 -11.617700 10.916432 0.445627 21.079500 -24.272398 15.081807 -45.964569 22.430279 10.103133 -40.470512 22.579987 -2.222241 0.185424 -0.009435 -0.544500 -0.230768 -0.012012 0.677691 
